#!OML:ASF F:\VICON\USERDATA\INSTALL\rory3\rory3.ASF
:FULLY-SPECIFIED
:DEGREES
1399
root -2.14269 16.3723 -0.289157 6.24494 32.1702 3.94628
lowerback 16.2065 -1.29526 -3.4708
upperback 2.13902 -2.18282 1.26009
thorax -6.61309 -0.944488 3.78071
lowerneck -13.2444 -10.0375 -14.5418
upperneck 16.2019 -14.4964 18.5816
head 9.84753 -6.07289 6.90069
rclavicle 4.45278e-014 -2.0276e-014
rhumerus 0.377082 -15.6081 -46.1906
rradius 135.927
rwrist 7.93358
rhand -10.0458 10.8073
rfingers 7.12502
rthumb 15.9395 -18.5568
lclavicle 4.45278e-014 -2.0276e-014
lhumerus 7.74951 -22.5802 84.8898
lradius 124.717
lwrist -12.5459
lhand -9.60747 4.8637
lfingers 7.12502
lthumb 16.3616 34.1936
rfemur -19.0487 -14.8924 0.659848
rtibia 53.4083
rfoot -27.3838 -10.9801
rtoes -19.1639
lfemur -25.8427 -7.16127 -0.811852
ltibia 42.5333
lfoot -13.7337 -5.9287
ltoes -37.2479
1400
root -2.05255 16.4999 -0.348402 6.16729 31.4956 4.31686
lowerback 16.2698 -0.835213 -3.25404
upperback 2.27785 -1.56427 0.896237
thorax -6.56965 -0.655512 3.13674
lowerneck -13.1129 -10.3421 -14.3869
upperneck 16.0583 -15.1292 19.3443
head 9.96061 -6.29857 7.04654
rclavicle -9.74045e-015 -1.15295e-014
rhumerus 4.6221 -15.8486 -45.0398
rradius 130.103
rwrist 10.0343
rhand -9.91302 9.54958
rfingers 7.12502
rthumb 16.0674 -19.8043
lclavicle -9.74045e-015 -1.15295e-014
lhumerus 8.43982 -23.578 84.5997
lradius 124.393
lwrist -12.85
lhand -9.84222 4.85092
lfingers 7.12502
lthumb 16.1356 34.1992
rfemur -18.446 -13.1303 0.0762661
rtibia 51.9615
rfoot -26.6683 -11.9496
rtoes -17.0278
lfemur -25.1574 -7.18139 -1.60411
ltibia 42.0203
lfoot -12.0709 -6.42008
ltoes -36.5296
1401
root -1.95479 16.6288 -0.415419 6.21057 30.6426 4.65179
lowerback 16.3164 -0.372391 -2.84081
upperback 2.28489 -0.912827 0.507531
thorax -6.65053 -0.351847 2.3487
lowerneck -12.9705 -10.6342 -14.0638
upperneck 16.0008 -15.7303 19.8258
head 10.0561 -6.52112 7.06567
rclavicle 3.43897e-014 -1.78906e-014
rhumerus 8.75439 -15.9856 -44.1069
rradius 123.551
rwrist 11.8091
rhand -9.81484 8.72315
rfingers 7.12502
rthumb 16.1619 -20.623
lclavicle 3.43897e-014 -1.78906e-014
lhumerus 8.8677 -24.5818 84.3622
lradius 124.33
lwrist -12.9553
lhand -9.65949 5.12496
lfingers 7.12502
lthumb 16.3115 34.4589
rfemur -18.1797 -11.2703 -0.480795
rtibia 50.5838
rfoot -25.4183 -13.2642
rtoes -15.1505
lfemur -24.6119 -7.14906 -2.30225
ltibia 41.5015
lfoot -10.2097 -7.00733
ltoes -36.1716
1402
root -1.85574 16.7702 -0.482794 6.29443 29.74 5.00174
lowerback 16.4317 0.0471434 -2.29658
upperback 2.1817 -0.305838 0.0356538
thorax -6.86702 -0.0727889 1.40658
lowerneck -12.4689 -10.8372 -13.7503
upperneck 15.8063 -16.2311 20.3985
head 10.0279 -6.71811 7.1479
rclavicle -4.19436e-014 -1.94809e-014
rhumerus 12.8803 -15.9444 -43.5071
rradius 115.818
rwrist 13.9932
rhand -9.95125 8.39704
rfingers 7.12502
rthumb 16.0306 -20.9598
lclavicle -4.19436e-014 -1.94809e-014
lhumerus 8.87231 -25.586 84.1217
lradius 124.499
lwrist -13.0258
lhand -9.22136 5.49338
lfingers 7.12502
lthumb 16.7333 34.7922
rfemur -18.098 -9.23915 -1.07767
rtibia 49.282
rfoot -24.1335 -14.699
rtoes -13.0316
lfemur -24.0891 -7.13293 -2.94986
ltibia 40.95
lfoot -8.20488 -7.78003
ltoes -36.2796
1403
root -1.75942 16.9138 -0.546147 6.24812 28.8169 5.21702
lowerback 16.6006 0.408604 -1.65886
upperback 2.06875 0.242642 -0.416548
thorax -7.09904 0.172535 0.440801
lowerneck -11.7641 -10.9502 -13.3648
upperneck 15.5535 -16.6085 20.9438
head 9.90783 -6.87428 7.23778
rclavicle -4.44284e-014 -2.54444e-014
rhumerus 17.4106 -15.8046 -43.3195
rradius 106.633
rwrist 16.968
rhand -10.6228 8.6082
rfingers 7.12502
rthumb 15.3838 -20.7995
lclavicle -4.44284e-014 -2.54444e-014
lhumerus 8.5292 -26.4717 83.834
lradius 124.811
lwrist -13.1074
lhand -8.89714 5.5362
lfingers 7.12502
lthumb 17.0454 34.8084
rfemur -18.0296 -7.09645 -1.57284
rtibia 48.0431
rfoot -23.1629 -16.0757
rtoes -10.647
lfemur -23.5247 -7.12628 -3.38341
ltibia 40.3127
lfoot -5.92608 -8.79005
ltoes -36.6612
